<svg width="501" height="507" viewBox="0 0 501 507" fill="none" xmlns="http://www.w3.org/2000/svg">
<path fill-rule="evenodd" clip-rule="evenodd" d="M184.895 8.69452C149.776 17.8969 114.892 36.3584 94.6752 56.4504C75.2852 75.7196 65.0674 105.841 68.3966 133.939C72.2618 166.581 86.3183 185.545 148.459 241.963C193.101 282.491 356.404 421.773 396.475 453.494C402.163 458.001 404.707 457.118 416.884 446.428C439.924 426.196 462.228 397.951 476.062 371.473C489.926 344.941 502.778 306.803 497.853 306.803C496.241 306.803 474.945 322.939 450.535 342.661C426.124 362.383 405.342 378.52 404.353 378.52C400.348 378.52 376.451 358.356 377.447 355.816C378.04 354.313 395.497 338.849 416.246 321.452C495.154 255.287 505.7 239.034 498.343 194.966C494.35 171.039 475.749 124.578 471.272 127.344C469.872 128.209 468.351 136.241 467.886 145.198C466.429 173.315 448.13 204.24 413.355 237.362C396.139 253.755 369.257 277.648 353.611 290.451L325.17 313.737L313.159 304.334C306.55 299.163 301.144 293.482 301.144 291.712C301.144 289.942 325.562 266.177 355.408 238.902C414.038 185.314 428.193 165.913 431.979 133.939C435.308 105.841 425.09 75.7196 405.7 56.4504C358.205 9.25316 262.104 -11.5334 184.895 8.69452ZM290.579 65.6264C301.578 67.9214 321.308 74.8553 334.414 81.0342C362.089 94.0792 374.382 109.638 371.05 127.394C367.683 145.319 363.164 146.708 348.912 134.192C341.755 127.911 325.958 117.889 313.804 111.929C293.542 101.987 288.262 101.089 250.188 101.089C212.114 101.089 206.833 101.987 186.571 111.929C174.417 117.889 158.62 127.911 151.464 134.192C137.211 146.708 132.693 145.319 129.326 127.394C121.471 85.5751 214.801 49.8261 290.579 65.6264ZM16.2961 148.648C2.34909 179.732 -3.13159 213.382 2.45478 233.625C7.8411 253.14 37.513 282.668 126.053 356.639C161.579 386.318 215.371 431.428 245.59 456.876L300.533 503.152L330.092 493.693C346.349 488.492 361.821 482.826 364.474 481.105C370.083 477.459 373.02 480.082 208.667 342.012C54.1815 212.227 42.6011 199.556 33.5082 150.366C31.251 138.159 28.7975 127.56 28.0539 126.816C27.3104 126.076 22.0184 135.898 16.2961 148.648ZM287.933 168.468C298.313 173.307 309.32 180.306 312.396 184.023C317.488 190.176 316.703 191.89 303.571 203.24L289.156 215.7L277.221 208.422C261.961 199.114 238.415 199.114 223.154 208.422L211.219 215.7L196.804 203.24C183.672 191.89 182.887 190.176 187.979 184.023C197.71 172.258 229.873 159.67 250.188 159.67C262.04 159.67 276.081 162.943 287.933 168.468ZM5.4065 326.619C18.5269 371.28 50.5278 418.866 88.9152 450.814C126.861 482.388 197.929 509.094 236.207 506.157L251.731 504.968L192.833 457.786C160.44 431.836 105.119 387.25 69.8989 358.703C34.6745 330.16 4.44398 306.803 2.72277 306.803C0.997792 306.803 2.20566 315.718 5.4065 326.619Z" fill="black"/>
</svg>
